<svg width="324" height="324" viewBox="0 0 324 324" fill="none" xmlns="http://www.w3.org/2000/svg">
<circle cx="162" cy="162" r="162" fill="#00808D"/>
<mask id="mask0_1625_72" style="mask-type:alpha" maskUnits="userSpaceOnUse" x="0" y="0" width="324" height="324">
<circle cx="162" cy="162" r="162" fill="#00808D"/>
</mask>
<g mask="url(#mask0_1625_72)">
<path d="M-307.882 -149.599C-529.341 -84.5699 -750.805 -19.5547 -972.272 45.4471C-1007.9 55.8962 -1026.65 47.3592 -1033 18.3723C-1038.05 -4.63513 -1027.02 -19.995 -1004.34 -26.4299C-881.009 -61.4197 326.939 -419.244 353.087 -425.302C370.839 -429.414 385.7 -420.873 394.311 -405.077C403.127 -388.903 399.339 -373.465 387.147 -359.876C378.174 -349.876 365.73 -347.385 353.72 -343.859C133.186 -279.108 -87.3484 -214.355 -307.882 -149.599Z" fill="#007682"/>
<path d="M335.522 561.312C347.618 602.509 377.847 704.354 387.236 737.827C393.671 760.767 382.293 786.435 362.959 789.277C339.449 792.732 326.319 780.932 319.259 757.403C299.041 690.023 261.034 553.464 236.165 487.334C178.851 334.932 76.1886 225.734 -70.1604 157.237C-153.489 118.219 -245.263 100.693 -337.106 106.258C-366.26 107.835 -385.554 93.4651 -385.243 72.5046C-384.871 47.3453 -368.365 34.496 -338.59 33.1727C-208.84 27.4058 -87.5935 56.345 23.6392 123.324C144.192 194.504 238.506 302.747 292.513 431.909C311.585 476.613 322.662 523.438 335.522 561.312Z" fill="#007682"/>
<path d="M254.591 236.017C230.854 242.203 208.107 231.66 211.816 198.964C221.602 162.163 230.051 152.733 218.509 137.868C209.129 125.787 188.513 122.049 172.494 115.565C111.116 90.7193 56.3165 55.1547 4.88995 13.9559C-22.1313 -7.69113 -29.6901 -27.8216 -17.8343 -47.077C-4.66 -68.4734 14.5166 -71.9985 36.2383 -56.0034C56.4109 -41.149 75.9568 -25.4409 95.6959 -10.0028C107.353 -0.885288 115.699 -1.54382 122.344 -16.3479C133.789 -41.8455 146.569 -66.7403 158.415 -92.0625C168.015 -112.583 181.524 -126.241 205.92 -117.519C227.579 -109.776 234.431 -88.0293 225.19 -61.6321C215.823 -35.2155 203.602 -9.89975 188.743 13.8658C178.286 30.7569 179.086 39.8135 199.878 47.9111C245.408 65.6428 245.344 67.0012 267.802 23.8429C314.552 -66.5873 384.077 -143.262 469.514 -198.613C480.572 -206.332 492.626 -212.516 505.345 -216.997C522.241 -222.337 538.388 -218.859 547.133 -201.224C557.822 -179.668 552.805 -161.438 531.821 -149.315C504.967 -134.294 479.546 -116.844 455.878 -97.1815C365.79 -20.4078 311.547 76.8838 285.834 191.327C281.573 210.29 277.122 229.598 254.591 236.017Z" fill="#007682"/>
</g>
</svg>
